HIERARCHY
ROOT Hips
{
	OFFSET 0.00000 0.00000 0.00000
	CHANNELS 6 Xposition Yposition Zposition Zrotation Yrotation Xrotation 
	JOINT LHipJoint
	{
		OFFSET 0 0 0
		CHANNELS 3 Zrotation Yrotation Xrotation
		JOINT LeftHip
		{
			OFFSET 1.58161 -1.81893 0.78828
			CHANNELS 3 Zrotation Yrotation Xrotation
			JOINT LeftKnee
			{
				OFFSET 2.53374 -6.96141 0.00000
				CHANNELS 3 Zrotation Yrotation Xrotation
				JOINT LeftAnkle
				{
					OFFSET 2.63509 -7.23986 0.00000
					CHANNELS 3 Zrotation Yrotation Xrotation
					JOINT LeftToe
					{
						OFFSET 0.14115 -0.38781 2.05350
						CHANNELS 3 Zrotation Yrotation Xrotation
						End Site
						{
							OFFSET 0.00000 -0.00000 1.05543
						}
					}
				}
			}
		}
	}
	JOINT RHipJoint
	{
		OFFSET 0 0 0
		CHANNELS 3 Zrotation Yrotation Xrotation
		JOINT RightHip
		{
			OFFSET -1.11138 -1.81893 0.78828
			CHANNELS 3 Zrotation Yrotation Xrotation
			JOINT RightKnee
			{
				OFFSET -2.58392 -7.09926 0.00000
				CHANNELS 3 Zrotation Yrotation Xrotation
				JOINT RightAnkle
				{
					OFFSET -2.66423 -7.31992 0.00000
					CHANNELS 3 Zrotation Yrotation Xrotation
					JOINT RightToe
					{
						OFFSET -0.18831 -0.51739 2.12114
						CHANNELS 3 Zrotation Yrotation Xrotation
						End Site
						{
							OFFSET -0.00000 -0.00000 1.09845
						}
					}
				}
			}
		}
	}
	JOINT lowerback
	{
		OFFSET 0 0 0
		CHANNELS 3 Zrotation Yrotation Xrotation
		JOINT Chest
		{
			OFFSET -0.01511 1.97958 -0.08829
			CHANNELS 3 Zrotation Yrotation Xrotation
			JOINT Chest2
			{
				OFFSET 0.08344 1.97334 -0.04330
				CHANNELS 3 Zrotation Yrotation Xrotation
				JOINT lowerneck
				{
					OFFSET 0 0 0
					CHANNELS 3 Zrotation Yrotation Xrotation
					JOINT Neck
					{
						OFFSET 0.00559 1.76246 0.31246
						CHANNELS 3 Zrotation Yrotation Xrotation
						JOINT Head
						{
							OFFSET -0.07011 1.80354 -0.30524
							CHANNELS 3 Zrotation Yrotation Xrotation
							End Site
							{
								OFFSET -0.02385 1.83547 -0.13906
							}
						}
					}
				}
				JOINT LeftCollar
				{
					OFFSET 0 0 0
					CHANNELS 3 Zrotation Yrotation Xrotation
					JOINT LeftShoulder
					{
						OFFSET 3.20667 1.30156 -0.60240
CHANNELS 3 Zrotation Xrotation Yrotation
						JOINT LeftElbow
						{
OFFSET 0 -4.956630 0.000000
CHANNELS 3 Zrotation Xrotation Yrotation
							JOINT LeftWrist
							{
OFFSET 0 -3.381770 0.000000
CHANNELS 3 Zrotation Xrotation Yrotation
								JOINT lhand
								{
									OFFSET 0 0 0
CHANNELS 3 Zrotation Xrotation Yrotation
									JOINT LFingers
									{
OFFSET 0 -0.662910 0.000000
CHANNELS 3 Zrotation Xrotation Yrotation
										End Site
										{
OFFSET 0 -0.534450 0.000000
										}
									}
								}
								JOINT LThumb
								{
OFFSET 0 0.000000 0.000000
CHANNELS 3 Zrotation Xrotation Yrotation
									End Site
									{
OFFSET 0 -0.542610 0.542610
									}
								}
							}
						}
					}
				}
				JOINT RightCollar
				{
					OFFSET 0 0 0
					CHANNELS 3 Zrotation Yrotation Xrotation
					JOINT RightShoulder
					{
						OFFSET -3.06877 1.34672 -0.60964
CHANNELS 3 Zrotation Xrotation Yrotation
						JOINT RightElbow
						{
OFFSET 0 -5.083650 0.000000
CHANNELS 3 Zrotation Xrotation Yrotation
							JOINT RightWrist
							{
OFFSET 0 -3.359840 0.000000
CHANNELS 3 Zrotation Xrotation Yrotation
								JOINT rhand
								{
									OFFSET 0 0 0
CHANNELS 3 Zrotation Xrotation Yrotation
									JOINT RFingers
									{
OFFSET 0 -0.820760 0.000000
CHANNELS 3 Zrotation Xrotation Yrotation
										End Site
										{
OFFSET 0 -0.661720 0.000000
										}
									}
								}
								JOINT RThumb
								{
OFFSET 0 0.000000 0.000000
CHANNELS 3 Zrotation Xrotation Yrotation
									End Site
									{
OFFSET 0 -0.671820 0.671820
									}
								}
							}
						}
					}
				}
			}
		}
	}
}
MOTION
Frames: 7
Frame Time: 0.008333333333333333
-7.075000 17.636900 2.066500 -64.980200 87.410400 -49.001500 0.000000 0.000000 0.000000 -6.110500 -1.662600 -29.970600 2.783400 10.336000 30.071600 0.443800 -6.525500 -12.026000 1.689800 -8.187700 -23.285700 0.000000 0.000000 0.000000 7.355400 7.775200 -30.321700 -2.947900 -10.610200 30.976100 -0.332700 -3.394700 -12.682700 -0.289200 3.458300 -9.557500 -2.431400 1.576600 1.538200 3.849500 2.119900 1.824800 5.321500 1.038200 0.781100 1.497400 -1.978000 -13.759400 -3.903200 0.439000 41.593000 -1.782200 0.556600 17.694200 -0.000000 -0.000000 0.000000 -14.018500 -20.475900 -78.089900 13.599500 -22.159300 2.675200 28.448800 -18.409700 -63.477600 0.000000 0.000000 0.000000 -7.125000 0.000000 0.000000 170.235200 6.572500 -8.713600 -0.000000 -0.000000 0.000000 13.381200 -23.646800 35.925800 -9.603400 -16.116900 -1.362800 -15.327000 -30.173100 8.544900 0.000000 0.000000 0.000000 7.125000 0.000000 -0.000000 9.964600 38.653400 1.576200
-7.075375 17.636525 2.063971 -64.934215 87.432316 -48.983237 0.000000 0.000000 0.000000 -6.151147 -1.642745 -29.938944 2.797448 10.359695 30.149616 0.424039 -6.599207 -11.788020 1.426720 -7.550932 -21.359101 0.000000 0.000000 0.000000 7.323089 7.751692 -30.305778 -2.951178 -10.615538 30.994082 -0.337851 -3.327268 -12.716510 -0.271686 3.352750 -9.262577 -2.452473 1.568077 1.582218 3.848563 2.107912 1.828827 5.331521 1.032300 0.761245 1.426502 -1.989988 -13.737391 -3.875852 0.426918 41.555163 -1.757849 0.542739 17.666103 0.000000 0.000000 0.000000 -14.036201 -20.473840 -78.023217 13.597814 -22.156865 2.674544 28.534495 -18.411948 -63.305741 0.000000 0.000000 0.000000 -7.125000 0.000000 0.000000 170.311623 6.429393 -8.670518 0.000000 0.000000 0.000000 13.375768 -23.625072 36.112738 -9.608083 -16.124205 -1.364111 -15.549714 -30.220958 8.489924 0.000000 0.000000 0.000000 7.125000 0.000000 0.000000 9.765674 38.613596 1.553723
-7.075662 17.636151 2.061355 -64.262813 87.494744 -48.325063 0.000000 0.000000 0.000000 -6.227941 -1.660958 -29.938634 2.806345 10.374746 30.198905 0.422962 -6.673177 -11.786743 1.384365 -7.444848 -21.040093 0.000000 0.000000 0.000000 7.246947 7.681211 -30.310375 -2.951487 -10.616075 30.995824 -0.341256 -3.265685 -12.727444 -0.270413 3.345251 -9.241640 -2.519821 1.555189 1.599083 3.828069 2.089288 1.836871 5.348353 1.021946 0.760598 1.335872 -2.006429 -13.745592 -3.802317 0.398422 41.554172 -1.712631 0.526084 17.666819 0.000000 0.000000 0.000000 -14.029367 -20.468287 -77.943873 13.579452 -22.130332 2.667602 28.759192 -18.077694 -63.365696 0.000000 0.000000 0.000000 -7.125000 0.000000 0.000000 170.353296 6.525872 -8.613816 0.000000 0.000000 0.000000 13.415476 -23.647785 36.126535 -9.583341 -16.085235 -1.357215 -15.661804 -30.263490 8.410500 0.000000 0.000000 0.000000 7.125000 0.000000 0.000000 9.656506 38.540526 1.553422
-7.076024 17.636667 2.059624 -65.260472 87.434372 -49.300001 0.000000 0.000000 0.000000 -6.142834 -1.637890 -29.999464 2.814787 10.389088 30.246027 0.421138 -6.727409 -11.773273 1.408410 -7.506304 -21.224432 0.000000 0.000000 0.000000 7.348017 7.648772 -30.358243 -2.951905 -10.616748 30.998005 -0.341133 -3.279342 -12.734368 -0.269671 3.340423 -9.227978 -2.453614 1.545303 1.576648 3.853439 2.077470 1.839943 5.338150 1.016533 0.778918 1.264212 -2.004490 -13.760846 -3.755788 0.405736 41.562173 -1.677232 0.523638 17.676430 0.000000 0.000000 0.000000 -14.061964 -20.492762 -77.845554 13.542712 -22.077271 2.653807 28.771163 -17.894288 -63.480306 0.000000 0.000000 0.000000 -7.125000 0.000000 0.000000 170.320464 6.633847 -8.623570 0.000000 0.000000 0.000000 13.425834 -23.643527 36.267585 -9.590712 -16.096827 -1.359277 -15.796867 -30.448059 8.327357 0.000000 0.000000 0.000000 7.125000 0.000000 0.000000 9.527382 38.465202 1.550037
-7.076249 17.636875 2.057957 -67.315949 87.328103 -51.341689 0.000000 0.000000 0.000000 -5.990454 -1.633292 -30.053475 2.821351 10.400134 30.282390 0.420551 -6.715040 -11.763108 1.468928 -7.658567 -21.682097 0.000000 0.000000 0.000000 7.532578 7.605218 -30.397284 -2.951627 -10.616378 30.996709 -0.345925 -3.248158 -12.786519 -0.205398 2.906926 -8.020586 -2.318640 1.536385 1.559109 3.894054 2.068211 1.844654 5.304604 1.013287 0.797752 1.244479 -1.985366 -13.762160 -3.730510 0.430937 41.558702 -1.657341 0.533749 17.676063 0.000000 0.000000 0.000000 -14.069452 -20.525117 -77.833806 13.516417 -22.039208 2.643935 28.897988 -17.770140 -63.552560 0.000000 0.000000 0.000000 -7.125000 0.000000 0.000000 170.331574 6.723807 -8.596283 0.000000 0.000000 0.000000 13.366977 -23.584687 36.639644 -9.667626 -16.217986 -1.380671 -15.921043 -30.878744 8.365995 0.000000 0.000000 0.000000 7.125000 0.000000 0.000000 9.428511 38.513555 1.522335
-7.076368 17.635466 2.056544 -68.517889 87.269642 -52.533447 0.000000 0.000000 0.000000 -5.914208 -1.617344 -30.099297 2.827097 10.409796 30.314169 0.419817 -6.725531 -11.755984 1.460534 -7.637990 -21.619987 0.000000 0.000000 0.000000 7.639727 7.556762 -30.421207 -2.949861 -10.613537 30.987224 -0.350058 -3.203708 -12.820460 -0.146797 2.460695 -6.781151 -2.238173 1.540965 1.547862 3.908058 2.075564 1.846510 5.273648 1.017826 0.807343 1.233760 -1.970597 -13.767577 -3.688407 0.440170 41.560246 -1.634259 0.541502 17.678751 0.000000 0.000000 0.000000 -14.035569 -20.545708 -77.967830 13.518257 -22.041808 2.644604 29.102203 -17.722176 -63.499290 0.000000 0.000000 0.000000 -7.125000 0.000000 0.000000 170.402857 6.712518 -8.533161 0.000000 0.000000 0.000000 13.351858 -23.577727 36.647905 -9.682453 -16.241344 -1.384764 -15.929497 -31.017660 8.368513 0.000000 0.000000 0.000000 7.125000 0.000000 0.000000 9.421853 38.516696 1.520506
-7.076710 17.634119 2.055357 -68.820753 87.233288 -52.817740 0.000000 0.000000 0.000000 -5.879790 -1.585545 -30.142605 2.832283 10.418450 30.342662 0.419686 -6.755182 -11.759274 1.417503 -7.529270 -21.293447 0.000000 0.000000 0.000000 7.677878 7.583532 -30.425175 -2.946994 -10.608770 30.971332 -0.348165 -3.237854 -12.814078 -0.130381 2.327522 -6.411642 -2.203444 1.563710 1.556144 3.909262 2.106609 1.826880 5.253942 1.034669 0.780204 1.210995 -1.964432 -13.759128 -3.646663 0.444926 41.576293 -1.609868 0.546968 17.686160 0.000000 0.000000 0.000000 -14.003115 -20.530537 -78.167686 13.536060 -22.067577 2.651327 29.307048 -17.594591 -63.460373 0.000000 0.000000 0.000000 -7.125000 0.000000 0.000000 170.469838 6.715019 -8.471452 0.000000 0.000000 0.000000 13.429367 -23.642959 36.058609 -9.582837 -16.084309 -1.357139 -15.826510 -30.578325 8.269667 0.000000 0.000000 0.000000 7.125000 0.000000 0.000000 9.492346 38.408382 1.557779
